<svg xmlns="http://www.w3.org/2000/svg" viewBox="0 0 3948 2076.14"><defs><style>.cls-1,.cls-14,.cls-16,.cls-2,.cls-24,.cls-25,.cls-26,.cls-27,.cls-28,.cls-29,.cls-3,.cls-30,.cls-32,.cls-33,.cls-38,.cls-4,.cls-5,.cls-6,.cls-7,.cls-8,.cls-9{fill:none;}.cls-1,.cls-3,.cls-5{stroke:#d9d9d9;}.cls-1,.cls-16,.cls-2,.cls-25,.cls-26,.cls-27,.cls-28,.cls-29,.cls-3,.cls-30,.cls-4,.cls-5,.cls-6,.cls-7,.cls-8,.cls-9{stroke-linejoin:round;}.cls-1,.cls-2{stroke-width:0.51px;}.cls-2,.cls-4,.cls-6,.cls-9{stroke:#f2f2f2;}.cls-3,.cls-4{stroke-width:0.66px;}.cls-5,.cls-6{stroke-width:1px;}.cls-16,.cls-24,.cls-30,.cls-7{stroke:#000;}.cls-16,.cls-25,.cls-26,.cls-27,.cls-28,.cls-29,.cls-30,.cls-7,.cls-8{stroke-linecap:round;}.cls-7{stroke-width:6px;}.cls-8{stroke:lime;stroke-width:5px;}.cls-10{opacity:0.6;}.cls-11{fill:#595959;}.cls-12{fill:#002147;}.cls-13{fill:#bb133e;}.cls-15{fill:#264262;}.cls-16{stroke-width:0.25px;}.cls-17{fill:#cf5364;}.cls-18{fill:#d7638c;}.cls-19{fill:#4c637e;}.cls-20{fill:#6c8aba;}.cls-21{fill:#d27fa2;}.cls-22{fill:#0d2b6a;}.cls-23{fill:#d98690;}.cls-24,.cls-32,.cls-33,.cls-38{stroke-miterlimit:10;}.cls-24,.cls-25,.cls-26,.cls-27,.cls-28,.cls-29,.cls-30{stroke-width:3px;}.cls-25{stroke:#5b9bd5;}.cls-26{stroke:#ed7d31;}.cls-27{stroke:#a5a5a5;}.cls-28{stroke:#ffc000;}.cls-29{stroke:#4472c4;}.cls-31{font-size:36px;}.cls-31,.cls-40{font-family:CourierNewPSMT, Courier New;}.cls-32,.cls-38{stroke:#002147;}.cls-32,.cls-33,.cls-38{stroke-width:20px;}.cls-33{stroke:#bb133e;}.cls-34,.cls-39{font-size:24px;font-family:ArialMT, Arial;}.cls-35{letter-spacing:-0.06em;}.cls-36{letter-spacing:-0.04em;}.cls-37{letter-spacing:-0.11em;}.cls-38{stroke-dasharray:9.91 9.91;}.cls-39{fill:#fff;}.cls-40{font-size:18px;}.cls-41{letter-spacing:-0.01em;}</style></defs><title>Asset 31080</title><g id="Layer_2" data-name="Layer 2"><g id="baseline"><path class="cls-1" d="M2544.54,92.6v1980m55.57-1980v1980m54.43-1980v1980m55.57-1980v1980m54.43-1980v1980m55.57-1980v1980m54.43-1980v1980"/><path class="cls-2" d="M2874.54,92.6h-330m330,124.93h-330m330,123h-330m330,123h-330m330,124.93h-330m330,123h-330m330,123h-330m330,124.93h-330m330,123h-330m330,123h-330m330,124.93h-330m330,123h-330m330,124.93h-330m330,123h-330m330,123h-330m330,124.93h-330m330,123h-330"/><path class="cls-1" d="M2955.51,93.7v1980m46.89-1980v1980m46.89-1980v1980m47.76-1980v1980M3144,93.7v1980m46.89-1980v1980m47.76-1980v1980m46.89-1980v1980"/><path class="cls-2" d="M3285.51,93.7h-330m330,124.47h-330m330,122.83h-330m330,124.47h-330m330,122.83h-330m330,124.47h-330m330,124.47h-330m330,122.83h-330m330,124.47h-330m330,122.83h-330m330,124.47h-330m330,122.83h-330m330,124.47h-330m330,122.83h-330m330,124.47h-330m330,122.83h-330m330,124.47h-330"/><path class="cls-1" d="M3389.67,93.57v1980m41.11-1980v1980m41.11-1980v1980m42.22-1980v1980m41.11-1980v1980m41.11-1980v1980m41.11-1980v1980m41.11-1980v1980m41.11-1980v1980"/><path class="cls-2" d="M3719.67,93.57h-330m330,122.53h-330m330,124.3h-330m330,124.3h-330m330,122.53h-330m330,124.3h-330m330,124.3h-330m330,124.3h-330m330,122.53h-330m330,124.3h-330m330,124.31h-330m330,122.53h-330m330,124.3h-330m330,124.3h-330m330,122.53h-330m330,124.31h-330m330,124.3h-330"/><path class="cls-3" d="M983.75,2075.8V95.8m-55.3,1980V95.8m-55.3,1980V95.8m-55.3,1980V95.8m-55.3,1980V95.8m-53.51,1980V95.8m-55.3,1980V95.8"/><path class="cls-4" d="M983.75,95.8h-330m330,123.55h-330m330,123.55h-330m330,123.55h-330m330,125.12h-330m330,123.55h-330m330,123.55h-330m330,123.55h-330m330,123.55h-330m330,123.55h-330m330,125.12h-330m330,123.55h-330m330,123.55h-330m330,123.55h-330m330,123.55h-330m330,123.55h-330m330,123.55h-330"/><path class="cls-3" d="M467.6,2074.19V95.77M420.68,2074.19V95.77M373.76,2074.19V95.77M326.84,2074.19V95.77M279.92,2074.19V95.77M233,2074.19V95.77M186.08,2074.19V95.77M139.16,2074.19V95.77"/><path class="cls-4" d="M467.6,95.77H139.16M467.6,218.93H139.16M467.6,343.67H139.16M467.6,466.83H139.16M467.6,590H139.16M467.6,714.72H139.16M467.6,837.88H139.16M467.6,961H139.16M467.6,1085.77H139.16M467.6,1208.93H139.16M467.6,1332.09H139.16M467.6,1456.83H139.16M467.6,1580H139.16M467.6,1703.14H139.16M467.6,1827.88H139.16M467.6,1951H139.16M467.6,2074.19H139.16"/><path class="cls-3" d="M1436.6,2075.81V95.81m-54.73,1980V95.81m-54.73,1980V95.81m-54.73,1980V95.81m-54.73,1980V95.81m275.27,1980V95.81h-330v1980Z"/><path class="cls-5" d="M2202.2,95V2075M2285.93,95V2075M2368,95V2075M2450.11,95V2075"/><path class="cls-6" d="M2450.11,95h-330m330,124.75h-330m330,123.3h-330m330,123.3h-330m330,123.3h-330m330,124.75h-330m330,123.3h-330m330,123.3h-330m330,123.3h-330m330,124.75h-330m330,123.3h-330m330,123.3h-330m330,124.75h-330m330,123.3h-330m330,123.3h-330m330,123.3h-330m330,124.75h-330"/><line class="cls-5" x1="2120.11" y1="2074.98" x2="2120.11" y2="94.98"/><polyline class="cls-7" points="2120.11 219.72 2120.11 466.32 2120.11 714.36 2120.11 960.95 2121.75 1209 2121.75 1455.59 2121.75 1703.64 2121.75 1950.23"/><polyline class="cls-8" points="2216.97 219.72 2220.26 466.32 2225.18 714.36 2213.69 960.95 2216.97 1209 2226.83 1455.59 2225.18 1703.64 2230.11 1950.23"/><line class="cls-9" y1="245.3" x2="3913" y2="245.3"/><line class="cls-9" x1="35" y1="532.3" x2="3948" y2="532.3"/><line class="cls-9" x1="35" y1="869.3" x2="3948" y2="869.3"/><line class="cls-9" x1="35" y1="1094.3" x2="3948" y2="1094.3"/><line class="cls-9" x1="35" y1="1951.3" x2="3948" y2="1951.3"/></g><g id="USA-1" class="cls-10"><g id="_Group_" data-name="&lt;Group&gt;"><polygon class="cls-11" points="2711.32 906.4 2723.71 959.55 2721.92 1037.26 2710.1 959.55 2711.32 906.4"/><polygon class="cls-12" points="2783.82 1701.58 2820.1 1949.55 2772.48 1949.55 2762.27 1701.58 2704.43 1453.61 2718.04 1205.63 2721.92 1037.26 2747.53 1205.63 2771.34 1453.61 2783.82 1701.58"/><polygon class="cls-12" points="2746.39 217.53 2731.65 463.61 2715.77 711.58 2711.32 906.4 2665.88 711.58 2671.55 463.61 2677.22 217.53 2746.39 217.53"/></g><polygon class="cls-12" points="3522.34 1949.26 3514.56 1702.43 3502.34 1453.82 3482.34 1206.98 3457.89 960.15 3413.45 711.54 3396.78 464.71 3380.12 216.1 3476.34 216.1 3494.12 464.71 3510.78 711.54 3553.01 960.15 3593.01 1206.98 3600.78 1453.82 3615.23 1702.43 3623.01 1949.26 3522.34 1949.26"/><polygon class="cls-12" points="3115.3 712.75 3118.78 960.05 3143.96 1207.35 3165.67 1454.64 3164.8 1701.94 3163.07 1949.23 3170.88 1949.23 3177.83 1701.94 3173.49 1454.64 3179.57 1207.35 3137.88 960.05 3141.35 712.75 3115.3 712.75"/><polygon class="cls-13" points="1264.36 1951.06 1275.62 1703.16 1333.58 1456.86 1319.09 1208.96 1314.26 961.06 1372.21 714.76 1365.77 466.86 1360.94 218.96 1415.67 218.96 1417.28 466.86 1420.5 714.76 1397.96 961.06 1340.01 1208.96 1367.38 1456.86 1325.53 1703.16 1302.99 1951.06 1264.36 1951.06"/><polygon class="cls-13" points="794.95 819.97 792.89 962.25 762.56 1209.35 737.59 1458.03 737.59 1705.14 741.16 1952.25 682.29 1952.25 684.08 1705.14 691.21 1458.03 757.21 1209.35 759 962.25 794.95 819.97"/><polygon class="cls-13" points="321.29 942.13 317.45 961.03 289.3 1208.93 265.84 1456.82 253.33 1703.14 243.95 1951.03 176.7 1951.03 184.52 1703.14 212.67 1456.82 251.77 1208.93 315.89 961.03 321.29 942.13"/><polygon class="cls-11" points="821.43 715.14 794.95 819.97 796.46 715.14 821.43 715.14"/><polygon class="cls-12" points="420.68 218.93 403.47 466.82 386.27 714.72 321.29 942.13 367.5 714.72 386.27 466.82 405.04 218.93 420.68 218.93"/><polygon class="cls-14" points="794.95 819.97 821.43 715.14 796.46 715.14 794.95 819.97"/><polygon class="cls-14" points="794.95 819.97 792.89 962.25 762.56 1209.35 737.59 1458.03 737.59 1705.14 741.16 1952.25 682.29 1952.25 684.08 1705.14 691.21 1458.03 757.21 1209.35 759 962.25 794.95 819.97"/><polygon class="cls-11" points="321.29 942.13 386.27 714.72 403.47 466.82 420.68 218.93 405.04 218.93 386.27 466.82 367.5 714.72 321.29 942.13"/><polygon class="cls-14" points="321.29 942.13 317.45 961.03 289.3 1208.93 265.84 1456.82 253.33 1703.14 243.95 1951.03 176.7 1951.03 184.52 1703.14 212.67 1456.82 251.77 1208.93 315.89 961.03 321.29 942.13"/></g><g id="USA-2" class="cls-10"><g id="_Group_2" data-name="&lt;Group&gt;"><polygon class="cls-11" points="2674.49 748.48 2840.52 959.55 2765.67 1205.63 2752.06 1453.61 2816.7 1701.58 2840.52 1949.55 2772.48 1949.55 2762.27 1701.58 2704.43 1453.61 2718.04 1205.63 2723.71 959.55 2674.49 748.48"/><polygon class="cls-15" points="2677.22 217.53 2671.55 463.61 2665.88 711.58 2674.49 748.48 2645.46 711.58 2655.67 463.61 2665.88 217.53 2677.22 217.53"/><polygon class="cls-16" points="2674.49 748.48 2665.88 711.58 2671.55 463.61 2677.22 217.53 2665.88 217.53 2655.67 463.61 2645.46 711.58 2674.49 748.48"/><polygon class="cls-16" points="2674.49 748.48 2840.52 959.55 2765.67 1205.63 2752.06 1453.61 2816.7 1701.58 2840.52 1949.55 2772.48 1949.55 2762.27 1701.58 2704.43 1453.61 2718.04 1205.63 2723.71 959.55 2674.49 748.48"/></g><polygon class="cls-15" points="3522.34 1949.26 3514.56 1702.43 3502.34 1453.82 3482.34 1206.98 3457.89 960.15 3413.45 711.54 3396.78 464.71 3380.12 216.1 3385.67 216.1 3401.23 464.71 3416.78 711.54 3459.01 960.15 3520.12 1206.98 3546.78 1453.82 3566.78 1702.43 3579.01 1949.26 3522.34 1949.26"/><polygon class="cls-15" points="3163.07 1949.23 3164.8 1701.94 3165.67 1454.64 3143.96 1207.35 3118.78 960.05 3115.3 712.75 3147.43 712.75 3142.22 960.05 3165.67 1207.35 3187.38 1454.64 3182.17 1701.94 3179.57 1949.23 3163.07 1949.23"/><polygon class="cls-17" points="262.72 1208.93 307.7 1046.87 289.3 1208.93 265.84 1456.82 253.33 1703.14 243.95 1951.03 170.44 1951.03 197.03 1703.14 217.36 1456.82 262.72 1208.93"/><polygon class="cls-11" points="823.21 715.14 816.08 962.25 785.75 1209.35 741.16 1458.03 762.56 1705.14 771.48 1952.25 741.16 1952.25 737.59 1705.14 737.59 1458.03 762.56 1209.35 792.89 962.25 796.46 715.14 823.21 715.14"/><polygon class="cls-11" points="417.55 218.93 397.22 466.82 376.89 714.72 331.53 961.03 307.7 1046.87 317.45 961.03 367.5 714.72 386.27 466.82 405.04 218.93 417.55 218.93"/><polygon class="cls-14" points="741.16 1952.25 737.59 1705.14 737.59 1458.03 762.56 1209.35 792.89 962.25 796.46 715.14 823.21 715.14 816.08 962.25 785.75 1209.35 741.16 1458.03 762.56 1705.14 771.48 1952.25 741.16 1952.25"/><polygon class="cls-14" points="307.7 1046.87 331.53 961.03 376.89 714.72 397.22 466.82 417.55 218.93 405.04 218.93 386.27 466.82 367.5 714.72 317.45 961.03 307.7 1046.87"/><polygon class="cls-14" points="307.7 1046.87 289.3 1208.93 265.84 1456.82 253.33 1703.14 243.95 1951.03 170.44 1951.03 197.03 1703.14 217.36 1456.82 262.72 1208.93 307.7 1046.87"/><polygon class="cls-17" points="1275.63 1703.16 1320.41 1512.85 1302.99 1703.16 1270.96 1805.93 1275.63 1703.16"/><polygon class="cls-11" points="1225.72 1951.06 1270.96 1805.93 1264.36 1951.06 1225.72 1951.06"/><polygon class="cls-11" points="1293.33 961.06 1368.07 732.35 1314.26 961.06 1319.09 1208.96 1333.58 1456.86 1320.41 1512.85 1325.53 1456.86 1299.77 1208.96 1293.33 961.06"/><polygon class="cls-11" points="1371.87 701.71 1336.8 466.86 1301.38 218.96 1360.94 218.96 1365.77 466.86 1371.87 701.71"/></g><g id="USA-3" class="cls-10"><polygon class="cls-11" points="1321.32 1247.1 1309.43 1208.96 1317.64 1134.59 1319.09 1208.96 1321.32 1247.1"/><polygon class="cls-11" points="1365.77 466.86 1372.21 714.76 1335.07 872.63 1331.97 714.76 1351.28 466.86 1362.87 318.12 1365.77 466.86"/><polygon class="cls-18" points="1321.32 1247.1 1386.7 1456.86 1309.43 1703.16 1285.28 1951.06 1264.36 1951.06 1275.63 1703.16 1333.58 1456.86 1321.32 1247.1"/><polygon class="cls-18" points="1335.07 872.63 1336.8 961.06 1317.64 1134.59 1314.26 961.06 1335.07 872.63"/><polygon class="cls-18" points="1370.6 218.96 1362.87 318.12 1360.94 218.96 1370.6 218.96"/><polygon class="cls-19" points="2762.27 1701.58 2772.48 1949.55 2719.18 1949.55 2715.77 1701.58 2668.15 1453.61 2659.07 1205.63 2693.09 959.55 2710.25 901.83 2723.71 959.55 2718.04 1205.63 2704.43 1453.61 2762.27 1701.58"/><polygon class="cls-11" points="2757.73 463.61 2766.81 711.58 2710.25 901.83 2665.88 711.58 2671.55 463.61 2677.22 217.53 2748.66 217.53 2757.73 463.61"/><polygon class="cls-11" points="814.29 715.14 794.58 845.15 796.46 715.14 814.29 715.14"/><polygon class="cls-18" points="776.83 962.25 794.58 845.15 792.89 962.25 768.08 1164.41 776.83 962.25"/><polygon class="cls-11" points="762.56 1209.35 768.08 1164.41 766.13 1209.35 758.02 1254.6 762.56 1209.35"/><polygon class="cls-18" points="721.54 1458.03 758.02 1254.6 737.59 1458.03 737.59 1705.14 741.16 1952.25 723.32 1952.25 716.19 1705.14 721.54 1458.03"/><polygon class="cls-11" points="426.93 218.93 397.22 466.82 369.84 683.81 386.27 466.82 405.04 218.93 426.93 218.93"/><polygon class="cls-18" points="369.84 683.81 367.5 714.72 317.45 961.03 289.3 1208.93 265.84 1456.82 253.33 1703.14 243.95 1951.03 179.82 1951.03 184.52 1703.14 198.59 1456.82 239.26 1208.93 300.25 961.03 365.94 714.72 369.84 683.81"/><polygon class="cls-19" points="3115.3 712.75 3118.78 960.05 3143.96 1207.35 3165.67 1454.64 3164.8 1701.94 3163.07 1949.23 3247.3 1949.23 3236.88 1701.94 3231.67 1454.64 3185.64 1207.35 3143.96 960.05 3150.04 712.75 3115.3 712.75"/><polygon class="cls-19" points="3703.01 1949.26 3695.23 1702.43 3683.01 1453.82 3659.67 1206.98 3591.89 960.15 3528.56 711.54 3504.12 464.71 3480.78 216.1 3380.12 216.1 3396.78 464.71 3413.45 711.54 3457.89 960.15 3482.34 1206.98 3502.34 1453.82 3514.56 1702.43 3522.34 1949.26 3703.01 1949.26"/></g><g id="USA-4" class="cls-10"><polygon class="cls-11" points="2772.48 1949.56 2762.27 1701.58 2704.44 1453.61 2718.05 1205.64 2723.72 959.56 2665.88 711.58 2671.55 463.61 2677.22 217.53 2739.59 217.53 2706.71 463.61 2672.69 711.58 2792.89 959.56 2828.05 1205.64 2840.52 1453.61 2775.88 1701.58 2820.11 1949.56 2772.48 1949.56"/><polygon class="cls-20" points="3380.12 216.1 3396.78 464.71 3413.45 711.54 3457.89 960.15 3482.34 1206.98 3502.34 1453.82 3514.56 1702.43 3522.34 1949.26 3608.56 1949.26 3591.89 1702.43 3563.01 1453.82 3535.23 1206.98 3484.12 960.15 3444.12 711.54 3437.45 464.71 3430.78 216.1 3380.12 216.1"/><polygon class="cls-11" points="3163.07 1949.23 3164.8 1701.94 3165.67 1454.64 3143.96 1207.35 3118.78 960.05 3115.3 712.75 3104.01 712.75 3079.7 960.05 3120.51 1207.35 3121.38 1454.64 3131.8 1701.94 3143.96 1949.23 3163.07 1949.23"/><polygon class="cls-21" points="1264.36 1951.06 1275.62 1703.16 1333.58 1456.86 1319.09 1208.96 1314.26 961.06 1372.21 714.76 1365.77 466.86 1360.94 218.96 1444.65 218.96 1438.21 466.86 1431.77 714.76 1386.7 961.06 1386.7 1208.96 1417.28 1456.86 1298.16 1703.16 1319.09 1951.06 1264.36 1951.06"/><polygon class="cls-21" points="300.56 1109.77 289.3 1208.93 265.84 1456.82 253.33 1703.14 243.95 1951.03 164.18 1951.03 165.75 1703.14 200.16 1456.82 258.02 1208.93 300.56 1109.77"/><polygon class="cls-21" points="755.43 1209.35 770.14 1147.6 762.56 1209.35 737.59 1458.03 737.59 1705.14 741.16 1952.25 725.11 1952.25 709.05 1705.14 691.21 1458.03 755.43 1209.35"/><polygon class="cls-11" points="839.27 715.14 814.29 962.25 770.14 1147.6 792.89 962.25 796.46 715.14 839.27 715.14"/><polygon class="cls-11" points="444.14 218.93 433.19 466.82 423.81 714.72 364.37 961.03 300.56 1109.77 317.45 961.03 367.5 714.72 386.27 466.82 405.04 218.93 444.14 218.93"/></g><g id="USA-5" class="cls-10"><polygon class="cls-22" points="3608.56 1949.26 3601.89 1702.43 3581.89 1453.82 3560.78 1206.98 3509.67 960.15 3469.67 711.54 3456.34 464.71 3444.12 216.1 3380.12 216.1 3396.78 464.71 3413.45 711.54 3457.89 960.15 3482.34 1206.98 3502.34 1453.82 3514.56 1702.43 3522.34 1949.26 3608.56 1949.26"/><polygon class="cls-11" points="3153.88 1320.37 3165.67 1454.64 3164.8 1701.93 3163.06 1949.23 3150.04 1949.23 3152.64 1701.93 3149.17 1454.64 3153.88 1320.37"/><polygon class="cls-11" points="3134.37 1113.16 3096.2 960.05 3117.27 852.89 3118.78 960.05 3134.37 1113.16"/><polygon class="cls-11" points="2778.15 1701.58 2780.41 1949.55 2772.48 1949.55 2762.27 1701.58 2704.43 1453.61 2718.04 1205.63 2722.92 993.72 2753.2 1205.63 2757.73 1453.61 2778.15 1701.58"/><polygon class="cls-22" points="3134.37 1113.16 3157.85 1207.34 3153.88 1320.37 3143.96 1207.34 3134.37 1113.16"/><polygon class="cls-22" points="3144.83 712.75 3117.27 852.89 3115.3 712.75 3144.83 712.75"/><polygon class="cls-22" points="2665.88 711.58 2723.71 959.55 2722.92 993.72 2718.04 959.55 2637.53 711.58 2651.14 463.61 2663.61 217.53 2677.22 217.53 2671.55 463.61 2665.88 711.58"/><polygon class="cls-23" points="1275.63 1703.16 1302.18 1590.31 1293.33 1703.16 1294.94 1951.06 1264.36 1951.06 1275.63 1703.16"/><polygon class="cls-11" points="1319.09 1208.96 1333.58 1456.86 1302.18 1590.31 1312.65 1456.86 1302.99 1208.96 1318.1 1158.36 1319.09 1208.96"/><polygon class="cls-23" points="1397.97 218.96 1396.36 466.86 1394.75 714.76 1377.04 961.06 1318.1 1158.36 1314.26 961.06 1372.21 714.76 1365.77 466.86 1360.94 218.96 1397.97 218.96"/><polygon class="cls-11" points="741.16 1952.25 737.59 1705.14 737.59 1458.03 762.57 1209.36 792.89 962.25 796.46 715.14 819.65 715.14 798.24 962.25 787.54 1209.36 764.35 1458.03 751.86 1705.14 769.7 1952.25 741.16 1952.25"/><polyline class="cls-23" points="405.04 218.93 386.27 466.83 367.5 714.72 317.45 961.04 289.3 1208.93 265.84 1456.83 253.33 1703.14 243.95 1951.04 192.34 1951.04 197.03 1703.14 207.98 1456.83 222.05 1208.93 295.56 961.04 354.99 714.72 372.19 466.83 390.96 218.93"/></g><g id="Ave"><polyline class="cls-24" points="1360.94 218.96 1372.21 714.76 1314.26 961.06 1333.58 1456.86 1275.63 1703.16 1264.36 1951.06"/><polyline class="cls-24" points="741.07 1952.08 737.5 1705.14 737.5 1457.8 762.57 1208.93 792.89 962.25 796.44 715.14"/><polyline class="cls-24" points="404.67 218.93 367.75 714.72 317.31 962.25 265.84 1456.83 244 1951.04"/><polyline class="cls-24" points="2677.21 218.16 2665.88 712.75 2724.5 960.05 2704.44 1453.61 2762.29 1701.94 2772.47 1949.23"/><polyline class="cls-24" points="3163.07 1949.23 3166.5 1454.64 3118.77 959.56 3115.3 711.58"/></g><g id="CountyAve"><polyline class="cls-8" points="2713.51 217.53 2701.04 463.61 2687.43 711.58 2750.93 959.56 2750.93 1205.64 2757.74 1453.61 2774.75 1701.58 2796.29 1949.56"/><polyline class="cls-8" points="3392.34 216.1 3407.89 464.71 3422.34 711.54 3467.89 960.15 3522.34 1206.98 3543.45 1453.82 3563.45 1702.43 3573.45 1949.26"/><polyline class="cls-8" points="3137.01 712.75 3119.64 960.05 3162.2 1207.35 3172.62 1454.64 3176.09 1701.94 3177.83 1949.23"/><polyline class="cls-8" points="823.21 715.14 792.89 962.25 769.7 1209.36 721.54 1458.03 725.11 1705.14 734.02 1952.25"/><polyline class="cls-8" points="420.68 218.93 400.35 466.83 381.58 714.72 320.58 961.04 247.08 1208.93 207.98 1456.83 186.08 1703.14 176.7 1951.04"/><polyline class="cls-8" points="1385.09 218.96 1388.31 466.86 1389.92 714.76 1357.72 961.06 1327.14 1208.96 1362.55 1456.86 1306.21 1703.16 1285.28 1951.06"/><path class="cls-5" d="M1810.21,2074.15V95.8m-81.33,1978.34V95.8M1646,2074.15V95.8m-81.33,1978.34V95.8"/><path class="cls-6" d="M1893.1,95.8H1564.67M1893.1,220H1564.67M1893.1,344.13H1564.67M1893.1,466.64H1564.67M1893.1,590.8H1564.67M1893.1,715H1564.67M1893.1,837.48H1564.67M1893.1,961.64H1564.67M1893.1,1085.8H1564.67M1893.1,1210H1564.67m328.44,122.51H1564.67m328.44,124.16H1564.67M1893.1,1580.8H1564.67m328.44,122.51H1564.67m328.44,124.16H1564.67m328.44,124.16H1564.67m328.44,122.51H1564.67"/><line class="cls-5" x1="1893.1" y1="95.8" x2="1893.1" y2="2074.15"/><polyline class="cls-25" points="1893.1 219.97 1893.1 466.64 1891.54 714.97 1891.54 961.64 1891.54 1209.97 1889.97 1456.64 1889.97 1703.31 1888.41 1951.64"/><polyline class="cls-26" points="1889.97 219.97 1889.97 466.64 1889.97 714.97 1888.41 961.64 1888.41 1209.97 1888.41 1456.64 1888.41 1703.31 1886.85 1951.64"/><polyline class="cls-27" points="1893.1 219.97 1891.54 466.64 1891.54 714.97 1891.54 961.64 1891.54 1209.97 1891.54 1456.64 1889.97 1703.31 1889.97 1951.64"/><polyline class="cls-28" points="1891.54 219.97 1891.54 466.64 1891.54 714.97 1891.54 961.64 1891.54 1209.97 1889.97 1456.64 1888.41 1703.31 1888.41 1951.64"/><polyline class="cls-29" points="1891.54 219.97 1891.54 466.64 1891.54 714.97 1891.54 961.64 1891.54 1209.97 1891.54 1456.64 1891.54 1703.31 1889.97 1951.64"/><polyline class="cls-8" points="1891.54 219.97 1891.54 466.64 1891.54 714.97 1891.54 961.64 1889.97 1209.97 1889.97 1456.64 1889.97 1703.31 1888.41 1951.64"/><polyline class="cls-30" points="1891.54 219.97 1891.54 466.64 1891.54 714.97 1891.54 961.64 1891.54 1209.97 1891.54 1456.64 1891.54 1703.31 1891.54 1951.64"/></g><g id="Layer_32" data-name="Layer 32"><rect class="cls-11" x="1995" y="200.8" width="60" height="49.27" rx="8.5" ry="8.5"/><rect class="cls-11" x="1995" y="445.52" width="60" height="49.27" rx="8.5" ry="8.5"/><rect class="cls-11" x="1995" y="690.23" width="60" height="49.27" rx="8.5" ry="8.5"/><rect class="cls-11" x="1995" y="934.95" width="60" height="49.27" rx="8.5" ry="8.5"/><rect class="cls-11" x="1995" y="1179.66" width="60" height="49.27" rx="8.5" ry="8.5"/><rect class="cls-11" x="1995" y="1424.38" width="60" height="49.27" rx="8.5" ry="8.5"/><rect class="cls-11" x="1995" y="1669.09" width="60" height="49.27" rx="8.5" ry="8.5"/><rect class="cls-11" x="1994" y="1778.8" width="60" height="49.27" rx="8.5" ry="8.5"/></g><g id="Text"><text></text><text class="cls-31" transform="translate(1714.45 228.1)">101.4</text><text class="cls-31" transform="translate(2389.89 228.02)">38,230</text><text class="cls-31" transform="translate(2133.35 2007.4)">36,648 /sqr mile</text><text class="cls-31" transform="translate(1620.88 2003.13)">439 /sqr mile</text><line x1="1913" y1="211.8" x2="1878" y2="162.8"/><line class="cls-32" x1="2025" y1="1254.8" x2="2025" y2="1450.8"/><line class="cls-32" x1="2025" y1="1646.8" x2="2025" y2="1951.06"/><line class="cls-33" x1="2025" y1="1450.8" x2="2025" y2="1646.8"/><line class="cls-33" x1="2025" y1="800.8" x2="2025" y2="858.8"/><line class="cls-33" x1="2025" y1="673.8" x2="2025" y2="799.8"/><line class="cls-33" x1="2025" y1="958.8" x2="2025" y2="1132.8"/><line class="cls-33" x1="2025" y1="1132.8" x2="2025" y2="1254.8"/><line class="cls-32" x1="2025" y1="841.8" x2="2025" y2="958.8"/><line class="cls-32" x1="2025" y1="204.8" x2="2025" y2="291.8"/><line class="cls-32" x1="2025" y1="467.8" x2="2025" y2="554.8"/><line class="cls-33" x1="2025" y1="291.8" x2="2025" y2="467.8"/><text class="cls-34" transform="translate(1862.99 1771.99)">Obama</text><text class="cls-34" transform="translate(1862.99 1558.99)">G.<tspan class="cls-35" x="25.34" y="0">W</tspan><tspan x="46.66" y="0">.</tspan><tspan x="0" y="28.8">Bush</tspan></text><text class="cls-34" transform="translate(1862.99 885.99)">Carter</text><text class="cls-34" transform="translate(1862.99 710.99)">Nixon</text><text class="cls-34" transform="translate(1862.99 1043.99)">Reagan</text><text class="cls-34" transform="translate(1862.99 1217.99)">G.H.<tspan class="cls-35" x="49.34" y="0">W</tspan><tspan x="70.66" y="0">.</tspan><tspan x="0" y="28.8">Bush</tspan></text><text class="cls-34" transform="translate(1862.99 1340.99)">Clinton</text><text class="cls-34" transform="translate(1862.99 277.99)"><tspan class="cls-36">T</tspan><tspan x="13.77" y="0">ruman</tspan></text><text class="cls-34" transform="translate(1862.99 372.99)">Eisenhower</text><text class="cls-34" transform="translate(1862.99 523.99)">J.<tspan class="cls-37" x="18.67" y="0">F</tspan><tspan x="30.67" y="0">.K</tspan></text><text class="cls-34" transform="translate(1862.99 623.99)">Johnson</text><line class="cls-32" x1="2025" y1="554.8" x2="2025" y2="559.8"/><line class="cls-38" x1="2025" y1="569.71" x2="2025" y2="663.85"/><line class="cls-32" x1="2025" y1="668.8" x2="2025" y2="673.8"/><text class="cls-39" transform="translate(1997.5 230.49)">1950</text><text class="cls-39" transform="translate(1997.5 475.27)">1960</text><text class="cls-39" transform="translate(1997.5 720.06)">1970</text><text class="cls-39" transform="translate(1997.5 964.84)">1980</text><text class="cls-39" transform="translate(1997.5 1209.63)">1990</text><text class="cls-39" transform="translate(1997.5 1454.42)">2000</text><text class="cls-39" transform="translate(1997.5 1699.2)">2010</text><text class="cls-39" transform="translate(1996.5 1808.99)">2015</text><text class="cls-31" transform="translate(2571.07 28.28)">Unemployment</text><text class="cls-31" transform="translate(1200.12 28.28)">Unrmployment</text><text class="cls-31" transform="translate(3476.78 28.28)">College</text><text class="cls-31" transform="translate(125.17 28.28)">College Attainment</text><text class="cls-31" transform="translate(3049.3 28.28)">Income</text><text class="cls-31" transform="translate(753.94 28.28)">Income</text><text class="cls-31" transform="translate(1685.58 28.28)">Density</text><text class="cls-31" transform="translate(2215 28.28)">Density</text><text class="cls-40" transform="translate(2117.04 80.64)">0</text><text class="cls-40" transform="translate(2275.21 80.64)">20k</text><text class="cls-40" transform="translate(2429.87 80.64)">40k</text><text class="cls-40" transform="translate(1888.41 80.64)">0</text><text class="cls-40" transform="translate(1718.74 80.64)">20k</text><text class="cls-40" transform="translate(1549.91 80.64)">40k</text><text class="cls-40" transform="translate(2538.96 80.64)"><tspan class="cls-41">0</tspan><tspan x="10.69" y="0">%</tspan></text><text class="cls-40" transform="translate(2646.82 80.64)">4%</text><text class="cls-40" transform="translate(2754.67 80.64)">8%</text><text class="cls-40" transform="translate(2862.52 80.64)"><tspan class="cls-41">12</tspan><tspan x="21.39" y="0">%</tspan></text><text class="cls-40" transform="translate(1485.56 77.64)"><tspan class="cls-41">0</tspan><tspan x="10.69" y="0">%</tspan></text><text class="cls-40" transform="translate(1377.71 77.64)">4%</text><text class="cls-40" transform="translate(1269.85 77.64)">8%</text><text class="cls-40" transform="translate(1162 77.64)"><tspan class="cls-41">12</tspan><tspan x="21.39" y="0">%</tspan></text><text class="cls-40" transform="translate(977.83 77.64)">0k</text><text class="cls-40" transform="translate(638.27 77.64)"><tspan class="cls-41">12</tspan><tspan x="21.39" y="0">0k</tspan></text><text class="cls-40" transform="translate(743.27 77.64)">80k</text><text class="cls-40" transform="translate(855.61 77.64)">40k</text><text class="cls-40" transform="translate(457.9 85.3)"><tspan class="cls-41">0</tspan><tspan x="10.69" y="0">%</tspan></text><text class="cls-40" transform="translate(77.33 85.3)">80%</text><text class="cls-40" transform="translate(171.83 85.3)">60%</text><text class="cls-40" transform="translate(268.51 85.3)">40%</text><text class="cls-40" transform="translate(362.51 85.3)">20%</text></g></g></svg>